<?xml version="1.0" encoding="UTF-8" standalone="no"?>
<!-- Generator: Adobe Illustrator 19.0.0, SVG Export Plug-In . SVG Version: 6.00 Build 0)  -->

<svg
   xmlns:dc="http://purl.org/dc/elements/1.1/"
   xmlns:cc="http://creativecommons.org/ns#"
   xmlns:rdf="http://www.w3.org/1999/02/22-rdf-syntax-ns#"
   xmlns:svg="http://www.w3.org/2000/svg"
   xmlns="http://www.w3.org/2000/svg"
   xmlns:sodipodi="http://sodipodi.sourceforge.net/DTD/sodipodi-0.dtd"
   xmlns:inkscape="http://www.inkscape.org/namespaces/inkscape"
   version="1.1"
   id="Layer_1"
   x="0px"
   y="0px"
   viewBox="0 0 911.42834 184.36982"
   xml:space="preserve"
   sodipodi:docname="java-logo.svg"
   width="911.42834"
   height="184.36981"
   inkscape:version="0.92.2 (unknown)"><metadata
     id="metadata43"><rdf:RDF><cc:Work
         rdf:about=""><dc:format>image/svg+xml</dc:format><dc:type
           rdf:resource="http://purl.org/dc/dcmitype/StillImage" /><dc:title /></cc:Work></rdf:RDF></metadata><defs
     id="defs41" /><sodipodi:namedview
     pagecolor="#ffffff"
     bordercolor="#666666"
     borderopacity="1"
     objecttolerance="10"
     gridtolerance="10"
     guidetolerance="10"
     inkscape:pageopacity="0"
     inkscape:pageshadow="2"
     inkscape:window-width="1366"
     inkscape:window-height="697"
     id="namedview39"
     showgrid="false"
     inkscape:zoom="0.94947201"
     inkscape:cx="483.99032"
     inkscape:cy="56.634363"
     inkscape:window-x="0"
     inkscape:window-y="34"
     inkscape:window-maximized="1"
     inkscape:current-layer="Layer_1" /><style
     type="text/css"
     id="style2">
	.st0{fill:#E92D2F;stroke:#E92D2F;stroke-width:9.375000e-02;stroke-miterlimit:10;}
	.st1{fill:#0774BA;stroke:#0774BA;stroke-width:9.375000e-02;stroke-miterlimit:10;}
</style><g
     id="g20"
     transform="matrix(1.8665449,0,0,1.2102034,-4.7805107,-1.2102034)"><path
       class="st0"
       d="m 74.1,1 c 3.5,4 4.6,9.6 3.6,14.8 -1.1,5.8 -4.3,10.8 -8,15.2 -3,3.5 -6.5,6.6 -10.1,9.5 -4.2,3.4 -8.3,7 -10.9,11.8 -2.2,3.9 -2.7,8.6 -1.2,12.8 2.5,7.2 8.3,12.5 11.4,19.3 C 55.4,81.3 52,78.1 48.8,74.8 45.5,71.2 42.3,67.5 40.2,63 c -1.4,-3.1 -2,-6.8 -1,-10.1 1.1,-3.4 3.5,-6.1 5.9,-8.6 6.7,-6.7 15,-11.7 21.6,-18.5 3.6,-3.7 6.6,-8.2 7.7,-13.4 C 75.3,8.6 74.9,4.7 74.1,1 Z"
       id="path4"
       inkscape:connector-curvature="0" /><path
       class="st0"
       d="M 68.6,43.3 C 75.8,38 84.2,34.6 92.8,32.2 86,36.5 79,40.4 73.2,46 c -2.1,2 -4.1,4.4 -5,7.2 -0.7,2.1 -0.4,4.5 0.4,6.5 1.6,3.6 4.2,6.5 6.2,9.7 1.7,2.8 2,6.3 0.7,9.4 -2,4.4 -5.8,7.6 -9.8,10.2 -0.5,0.3 -1,0.9 -1.6,0.9 2.7,-2.4 4.8,-5.8 4.7,-9.5 -0.1,-2.7 -1.6,-5.2 -3.4,-7.1 -3.7,-4.4 -6.8,-9.9 -6.1,-15.8 0.5,-6.1 4.7,-10.8 9.3,-14.2 z"
       id="path6"
       inkscape:connector-curvature="0" /><path
       class="st1"
       d="m 94.1,86.2 c 1.6,-1.9 4,-2.4 6.3,-2.7 3.9,-0.5 8.1,0.5 11.1,3.2 2.5,2.2 3.8,5.6 3.3,8.9 -0.6,3.8 -3.1,7 -6,9.4 -5.2,4.2 -11.7,6.6 -18.1,8.3 0.4,-0.4 0.8,-0.8 1.3,-1.1 4.9,-2.6 9.8,-5.7 13.4,-10 2.2,-2.7 3.9,-6.2 3.2,-9.7 -0.7,-4.1 -4.7,-7.1 -8.8,-7.3 -2,-0.1 -3.8,0.6 -5.7,1 z"
       id="path8"
       inkscape:connector-curvature="0" /><path
       class="st1"
       d="m 19.5,89.6 c 6.8,-2.9 14.3,-4.8 21.7,-4.7 -4.3,1.3 -8.8,2.3 -12.9,4.3 -1,0.5 -2.1,1 -2.6,2 -0.3,0.8 0.5,1.3 1.1,1.6 2.5,1 5.3,1.2 8,1.4 9.5,0.6 19,0.3 28.5,-0.3 9.4,-0.6 18.6,-1.9 27.9,-3.3 -2,1 -4.1,1.9 -6,3.2 -1,0.7 -2.2,0.9 -3.2,1.1 -11.4,2.5 -23,3.3 -34.6,3.5 -4.5,0 -8.9,0 -13.4,-0.3 -5,-0.3 -10,-0.7 -14.8,-2 -1.4,-0.4 -2.9,-0.9 -4,-1.9 -0.6,-0.4 -0.6,-1.3 -0.1,-1.9 1.2,-1.4 2.9,-2 4.4,-2.7 z"
       id="path10"
       inkscape:connector-curvature="0" /><path
       class="st1"
       d="m 28.3,105.4 c 1.9,-1.5 4.2,-2.4 6.5,-3.2 -0.7,0.9 -1.8,1.7 -1.9,3 0,0.8 0.6,1.4 1.2,1.7 1.2,0.6 2.6,0.9 4,1 7.1,0.7 14.3,1.2 21.5,0.7 6.6,-0.3 13.1,-1.4 19.6,-2.6 1.8,1.7 3.9,2.8 6.1,3.8 -7.8,2.3 -15.9,3.6 -24,4.3 -7.6,0.5 -15.4,0.5 -23,-0.7 -3,-0.6 -6.1,-1.2 -8.8,-2.6 -1.1,-0.6 -2.4,-1.4 -2.7,-2.7 -0.2,-1.1 0.7,-2.1 1.5,-2.7 z"
       id="path12"
       inkscape:connector-curvature="0" /><path
       class="st1"
       d="m 32.6,121.6 c 1.7,-1.4 3.8,-2.1 5.9,-2.7 -0.7,0.6 -1.9,1.4 -1.3,2.5 1,1.3 2.9,1.4 4.3,1.8 6.3,0.8 12.6,1.3 18.9,0.8 4.8,-0.3 9.4,-1.2 14.1,-2 2.7,1.6 5.5,2.9 8.3,4.1 -4.4,2 -9.1,3.2 -13.8,4.1 -7.9,1.4 -16.1,1.6 -24.1,0.3 -3.5,-0.6 -7.1,-1.4 -10.3,-3.2 -1.2,-0.7 -2.5,-1.5 -3,-2.9 -0.5,-1 0.1,-2.1 1,-2.8 z"
       id="path14"
       inkscape:connector-curvature="0" /><path
       class="st1"
       d="m 12,132.1 c 3.4,-1.2 6.9,-2.1 10.5,-2.2 1.4,0 2.9,0 4.2,0.8 -4.3,0.3 -8.6,1.3 -12.5,3.3 -0.9,0.5 -1.8,1 -2.2,2 0,1.2 1.3,1.5 2.2,1.9 5.4,2 11.1,2.6 16.8,3.2 16.8,1.4 33.7,1 50.6,-0.5 6.3,-0.7 12.7,-1.4 18.9,-3.2 2,-0.7 4.2,-1.3 5.5,-3.1 0.8,-1 0.3,-2.3 -0.5,-3.2 1.3,0.7 3,1.6 2.8,3.3 -0.5,1.8 -2.3,2.7 -3.8,3.6 -4.8,2.4 -10,3.6 -15.2,4.7 -15.1,3 -30.6,3.6 -45.9,3.2 -11.6,-0.4 -23.2,-1.5 -34.6,-3.5 -2,-0.5 -4.3,-0.9 -5.8,-2.5 -1,-1.1 -0.1,-2.7 0.8,-3.5 2.3,-2 5.3,-3.2 8.2,-4.3 z"
       id="path16"
       inkscape:connector-curvature="0" /><path
       class="st1"
       d="m 104.5,144.8 c 3.7,-1.3 7.8,-2.7 10.5,-5.6 -0.5,3.2 -3.3,5.5 -6,6.9 -5.3,2.7 -11.2,4 -17,5 -12.4,2 -25,2.4 -37.6,2.2 -8.6,-0.3 -17.2,-0.6 -25.6,-2.4 -2,-0.6 -4.2,-0.9 -5.9,-2.1 7.5,1.3 15.1,1.8 22.7,2.1 12.5,0.4 25.1,-0.1 37.5,-1.7 7.2,-1 14.4,-2.2 21.4,-4.4 z"
       id="path18"
       inkscape:connector-curvature="0" /></g><g
     id="g36"
     transform="matrix(4.2532786,0,0,1.8987512,-289.69959,-55.463782)"><path
       class="st0"
       d="m 136.8,89 c 0,-13.6 0,-27.2 0,-40.8 2.8,0.1 5.6,0 8.5,0.1 0,15.2 0,30.5 0,45.7 -0.1,4.3 -0.2,8.7 -2.2,12.6 -2.3,4.1 -6.3,6.9 -10.7,8.6 -1.4,-1.5 -2.6,-3.1 -4,-4.6 v 0 c 3.5,-2 7,-4.9 7.8,-9.1 0.7,-4.2 0.5,-8.3 0.6,-12.5 z"
       id="path22"
       inkscape:connector-curvature="0" /><path
       class="st0"
       d="m 153.1,64.6 c 5.6,-2.4 11.8,-3.6 17.9,-3 3.2,0.4 6.4,1.5 8.5,4.1 1.7,2.2 2.3,4.9 2.3,7.6 0,9.3 0,18.5 0,27.8 -2.1,0 -4.1,0 -6.3,0 -0.2,-1.4 -0.4,-2.8 -0.6,-4.2 -2.4,1.9 -4.9,3.6 -7.8,4.4 -3.4,0.9 -7,0.8 -10.3,-0.5 -2.5,-1 -4.5,-3.3 -5.2,-6 -1,-3.9 -0.5,-8.4 2.2,-11.5 2.4,-2.9 6.1,-4.3 9.8,-4.9 3.4,-0.7 6.8,-0.7 10.2,-0.7 -0.1,-2.6 0.4,-5.5 -1.1,-7.8 -1.2,-1.8 -3.4,-2.5 -5.4,-2.6 -4.4,-0.4 -8.8,0.7 -13,2.2 -0.4,-1.6 -0.8,-3.3 -1.2,-4.9 m 10.3,19.2 c -1.8,0.6 -3.5,1.9 -4,3.8 -0.6,2.1 -0.4,4.6 1,6.4 1.3,1.7 3.7,2.2 5.8,1.9 2.9,-0.3 5.4,-2 7.7,-3.8 0,-3.1 0,-6.2 0,-9.3 -3.6,0 -7.2,-0.2 -10.5,1 z"
       id="path24"
       inkscape:connector-curvature="0" /><path
       class="st0"
       d="m 226,64.6 c 5.6,-2.4 11.9,-3.7 18,-3 3.1,0.4 6.2,1.5 8.2,3.9 1.9,2.3 2.5,5.3 2.4,8.2 0,9.2 0,18.3 -0.1,27.4 -2.1,-0.1 -4.1,0 -6.2,-0.1 -0.2,-1.4 -0.4,-2.8 -0.6,-4.1 -2.9,2.5 -6.4,4.5 -10.3,4.8 -3.6,0.3 -7.7,-0.1 -10.5,-2.7 -2.9,-2.7 -3.4,-7.2 -2.7,-10.9 0.7,-3.5 3.3,-6.3 6.5,-7.9 4.9,-2.4 10.6,-2.5 16,-2.5 -0.1,-2.5 0.4,-5.2 -0.9,-7.5 -1,-1.8 -3.1,-2.7 -5.1,-2.9 -4.6,-0.5 -9.2,0.7 -13.5,2.2 -0.4,-1.6 -0.8,-3.3 -1.2,-4.9 m 10.1,19.2 c -1.7,0.6 -3.4,1.9 -3.9,3.7 -0.6,2.1 -0.4,4.6 0.9,6.4 1.4,1.8 3.8,2.2 5.9,1.9 2.9,-0.4 5.5,-2 7.6,-3.9 -0.1,-3 0,-6.1 0,-9.2 -3.5,0.1 -7.1,-0.1 -10.5,1.1 z"
       id="path26"
       inkscape:connector-curvature="0" /><path
       class="st0"
       d="m 186.5,62.1 c 2.9,0 5.8,0 8.7,0 1.7,5.5 3.4,10.9 5.1,16.4 1,3.4 2.2,6.7 2.9,10.1 0.4,1.5 0.7,3.1 1.2,4.6 3.6,-10.1 6.3,-20.5 7.7,-31.1 2.8,0 5.6,0 8.5,0 -2.4,13.4 -6.3,26.7 -12.1,39 -3.3,0 -6.6,0 -9.9,0 -4.1,-13 -8.1,-26 -12.1,-39 z"
       id="path28"
       inkscape:connector-curvature="0" /><g
       id="g34" /></g></svg>